<svg width="951" height="368" viewBox="0 0 951 368" fill="none" xmlns="http://www.w3.org/2000/svg">
<path d="M300.01 275.16C295.51 275.16 291.55 273.99 288.13 271.65C284.89 269.31 282.19 265.71 280.03 260.85L237.1 161.22C235.48 157.26 234.85 153.57 235.21 150.15C235.75 146.73 237.37 144.03 240.07 142.05C242.95 139.89 246.82 138.81 251.68 138.81C255.82 138.81 259.15 139.8 261.67 141.78C264.19 143.58 266.44 147.09 268.42 152.31L304.87 243.3H296.77L334.3 152.04C336.28 147 338.53 143.58 341.05 141.78C343.75 139.8 347.35 138.81 351.85 138.81C355.81 138.81 358.96 139.89 361.3 142.05C363.64 144.03 365.08 146.73 365.62 150.15C366.16 153.39 365.53 156.99 363.73 160.95L319.99 260.85C318.01 265.71 315.31 269.31 311.89 271.65C308.65 273.99 304.69 275.16 300.01 275.16ZM443.266 275.7C428.326 275.7 415.456 272.91 404.656 267.33C393.856 261.75 385.486 253.83 379.546 243.57C373.786 233.31 370.906 221.16 370.906 207.12C370.906 193.44 373.696 181.47 379.276 171.21C385.036 160.95 392.866 152.94 402.766 147.18C412.846 141.24 424.276 138.27 437.056 138.27C446.416 138.27 454.786 139.8 462.166 142.86C469.726 145.92 476.116 150.33 481.336 156.09C486.736 161.85 490.786 168.87 493.486 177.15C496.366 185.25 497.806 194.43 497.806 204.69C497.806 207.93 496.636 210.45 494.296 212.25C492.136 213.87 488.986 214.68 484.846 214.68H398.176V195.24H474.046L469.726 199.29C469.726 191.01 468.466 184.08 465.946 178.5C463.606 172.92 460.096 168.69 455.416 165.81C450.916 162.75 445.246 161.22 438.406 161.22C430.846 161.22 424.366 163.02 418.966 166.62C413.746 170.04 409.696 174.99 406.816 181.47C404.116 187.77 402.766 195.33 402.766 204.15V206.04C402.766 220.8 406.186 231.87 413.026 239.25C420.046 246.45 430.306 250.05 443.806 250.05C448.486 250.05 453.706 249.51 459.466 248.43C465.406 247.17 470.986 245.1 476.206 242.22C479.986 240.06 483.316 239.16 486.196 239.52C489.076 239.7 491.326 240.69 492.946 242.49C494.746 244.29 495.826 246.54 496.186 249.24C496.546 251.76 496.006 254.37 494.566 257.07C493.306 259.77 491.056 262.11 487.816 264.09C481.516 268.05 474.226 271.02 465.946 273C457.846 274.8 450.286 275.7 443.266 275.7ZM561.524 275.7C546.584 275.7 535.334 271.47 527.774 263.01C520.214 254.37 516.434 241.77 516.434 225.21V97.5C516.434 91.92 517.874 87.69 520.754 84.81C523.634 81.93 527.774 80.49 533.174 80.49C538.574 80.49 542.714 81.93 545.594 84.81C548.654 87.69 550.184 91.92 550.184 97.5V223.59C550.184 231.87 551.894 237.99 555.314 241.95C558.914 245.91 563.954 247.89 570.434 247.89C571.874 247.89 573.224 247.89 574.484 247.89C575.744 247.71 577.004 247.53 578.264 247.35C580.784 246.99 582.494 247.71 583.394 249.51C584.294 251.13 584.744 254.55 584.744 259.77C584.744 264.27 583.844 267.78 582.044 270.3C580.244 272.82 577.274 274.35 573.134 274.89C571.334 275.07 569.444 275.25 567.464 275.43C565.484 275.61 563.504 275.7 561.524 275.7ZM624.607 323.76C620.647 323.76 617.407 322.68 614.887 320.52C612.367 318.54 610.837 315.84 610.297 312.42C609.937 309 610.567 305.4 612.187 301.62L630.547 260.85V274.89L581.407 161.22C579.787 157.26 579.247 153.57 579.787 150.15C580.327 146.73 581.947 144.03 584.647 142.05C587.527 139.89 591.397 138.81 596.257 138.81C600.397 138.81 603.727 139.8 606.247 141.78C608.767 143.58 611.017 147.09 612.997 152.31L649.447 243.3H641.347L678.607 152.04C680.587 147 682.927 143.58 685.627 141.78C688.327 139.8 691.927 138.81 696.427 138.81C700.387 138.81 703.537 139.89 705.877 142.05C708.217 144.03 709.657 146.73 710.197 150.15C710.737 153.39 710.107 156.99 708.307 160.95L642.697 310.8C640.357 315.84 637.837 319.26 635.137 321.06C632.437 322.86 628.927 323.76 624.607 323.76ZM765.979 275.7C756.439 275.7 747.889 273.9 740.329 270.3C732.949 266.52 727.099 261.48 722.779 255.18C718.639 248.88 716.569 241.77 716.569 233.85C716.569 224.13 719.089 216.48 724.129 210.9C729.169 205.14 737.359 201 748.699 198.48C760.039 195.96 775.249 194.7 794.329 194.7H807.829V214.14H794.599C783.439 214.14 774.529 214.68 767.869 215.76C761.209 216.84 756.439 218.73 753.559 221.43C750.859 223.95 749.509 227.55 749.509 232.23C749.509 238.17 751.579 243.03 755.719 246.81C759.859 250.59 765.619 252.48 772.999 252.48C778.939 252.48 784.159 251.13 788.659 248.43C793.339 245.55 797.029 241.68 799.729 236.82C802.429 231.96 803.779 226.38 803.779 220.08V189.03C803.779 180.03 801.799 173.55 797.839 169.59C793.879 165.63 787.219 163.65 777.859 163.65C772.639 163.65 766.969 164.28 760.849 165.54C754.909 166.8 748.609 168.96 741.949 172.02C738.529 173.64 735.469 174.09 732.769 173.37C730.249 172.65 728.269 171.21 726.829 169.05C725.389 166.71 724.669 164.19 724.669 161.49C724.669 158.79 725.389 156.18 726.829 153.66C728.269 150.96 730.699 148.98 734.119 147.72C742.399 144.3 750.319 141.87 757.879 140.43C765.619 138.99 772.639 138.27 778.939 138.27C791.899 138.27 802.519 140.25 810.799 144.21C819.259 148.17 825.559 154.2 829.699 162.3C833.839 170.22 835.909 180.48 835.909 193.08V257.88C835.909 263.46 834.559 267.78 831.859 270.84C829.159 273.72 825.289 275.16 820.249 275.16C815.209 275.16 811.249 273.72 808.369 270.84C805.669 267.78 804.319 263.46 804.319 257.88V244.92H806.479C805.219 251.22 802.699 256.71 798.919 261.39C795.319 265.89 790.729 269.4 785.149 271.92C779.569 274.44 773.179 275.7 765.979 275.7ZM879.346 275.16C873.766 275.16 869.446 273.72 866.386 270.84C863.506 267.78 862.066 263.46 862.066 257.88V155.82C862.066 150.24 863.506 146.01 866.386 143.13C869.266 140.25 873.316 138.81 878.536 138.81C883.756 138.81 887.806 140.25 890.686 143.13C893.566 146.01 895.006 150.24 895.006 155.82V172.83H892.306C894.826 162.03 899.776 153.84 907.156 148.26C914.536 142.68 924.346 139.35 936.586 138.27C940.366 137.91 943.336 138.9 945.496 141.24C947.836 143.4 949.186 146.82 949.546 151.5C949.906 156 948.826 159.69 946.306 162.57C943.966 165.27 940.366 166.89 935.506 167.43L929.566 167.97C918.586 169.05 910.306 172.47 904.726 178.23C899.146 183.81 896.356 191.73 896.356 201.99V257.88C896.356 263.46 894.916 267.78 892.036 270.84C889.156 273.72 884.926 275.16 879.346 275.16Z" fill="#285A66"/>
<path d="M93.168 63.8369C123.974 58.675 152.366 77.8246 160.275 109.047C162.274 117.04 162.523 130.111 160.691 138.521C159.359 144.932 155.113 157.088 153.281 159.919C150.784 163.749 148.618 171.909 148.618 177.653C148.618 187.478 149.951 189.976 162.439 202.964C171.265 212.122 174.179 215.786 176.511 220.531C185.17 238.099 182.922 257.082 170.35 273.734C160.358 286.889 142.957 296.464 138.461 291.219C134.881 287.139 136.463 284.059 147.203 273.651C152.615 268.406 155.946 264.409 157.444 261.412C159.442 257.333 159.609 256.25 159.276 248.84C159.027 241.763 158.61 240.098 156.528 236.185C152.365 228.608 139.293 218.867 134.381 219.616C131.051 220.116 130.718 222.031 132.3 230.772C134.881 244.427 132.965 256.333 126.305 267.323C124.639 270.071 119.478 276.066 114.815 280.646C100.328 294.966 98.9127 301.793 108.154 313.116C111.152 316.863 111.984 318.528 111.984 320.859C111.984 324.44 111.401 325.439 108.903 326.771C103.325 329.685 92.3353 321.692 87.6729 311.368C86.1742 308.038 85.8408 305.79 85.8408 299.379C85.9241 287.972 89.0046 281.061 100.078 267.906C105.407 261.579 107.405 257.832 109.153 250.922C113.15 235.352 103.742 221.364 94.583 229.107C93.1676 230.273 90.2534 234.603 88.1719 238.766C82.6768 249.256 79.0135 252.587 62.7783 261.495C47.0423 270.154 44.1279 272.403 41.5469 278.147C39.1324 283.226 39.0492 286.223 41.2139 290.886C42.9623 294.799 46.2091 297.131 53.6191 299.795C59.4473 301.876 61.4452 304.79 59.5303 308.287C57.5321 311.867 54.8683 312.783 48.291 312.45C40.6311 312.034 35.552 309.703 29.9736 304.041C23.1464 296.964 20.315 287.556 22.0635 277.564C24.3115 265.492 30.5563 257.832 46.292 248.008C51.6206 244.677 57.3658 240.431 59.1143 238.516C64.6094 232.438 68.0227 222.613 65.0254 221.447C64.3581 221.198 60.9454 222.447 57.3662 224.278C47.6248 229.191 43.5447 230.356 35.8848 230.356C21.0647 230.44 8.57555 222.447 2.33105 208.959C0.416092 204.713 0.0832623 202.964 0 196.137C0 190.642 0.499907 186.811 1.49902 183.647C5.99515 169.993 20.5656 159.169 27.3096 164.498C31.0559 167.412 30.4725 170.993 25.3105 176.654C20.1488 182.399 18.7334 185.563 18.7334 191.558C18.7334 196.72 19.8994 199.634 23.4795 202.964C26.5601 205.961 29.5577 206.96 35.0527 206.96C50.7887 206.96 63.9433 187.144 59.1143 170.742C58.3649 168.078 55.5345 161.418 52.7871 156.006C45.71 141.852 43.5449 134.025 43.5449 122.035C43.4617 113.959 43.7943 111.461 45.626 105.8C48.7898 96.1417 53.2034 89.2312 61.1963 81.2383C71.0209 71.4137 81.3451 65.8351 93.168 63.8369ZM83.3643 149.798C77.329 149.798 72.4366 154.69 72.4365 160.726C72.4365 166.761 77.329 171.653 83.3643 171.653C89.3994 171.653 94.292 166.761 94.292 160.726C94.2919 154.69 89.3993 149.798 83.3643 149.798Z" fill="#285A66"/>
</svg>
